<?xml version="1.0" standalone="no"?>
<!DOCTYPE svg PUBLIC "-//W3C//DTD SVG 20010904//EN"
 "http://www.w3.org/TR/2001/REC-SVG-20010904/DTD/svg10.dtd">
<svg version="1.0" xmlns="http://www.w3.org/2000/svg"
 width="64.000000pt" height="64.000000pt" viewBox="0 0 64.000000 64.000000"
 preserveAspectRatio="xMidYMid meet">

<g transform="translate(0.000000,64.000000) scale(0.100000,-0.100000)"
fill="#808080" stroke="none">
<path d="M396 579 c-25 -35 -46 -69 -46 -76 0 -10 29 -13 130 -13 72 0 130 4
130 9 0 9 -142 133 -159 139 -5 2 -29 -25 -55 -59z"/>
<path d="M350 457 c0 -8 33 -106 74 -218 49 -136 79 -204 88 -204 16 0 128
124 128 140 -1 5 -45 73 -98 150 l-97 140 -48 3 c-36 2 -47 0 -47 -11z"/>
<path d="M127 414 c-3 -4 43 -101 58 -122 5 -6 190 -39 197 -35 5 2 1 17 -6
32 -10 18 -35 37 -74 54 -144 65 -170 76 -175 71z"/>
<path d="M40 243 c24 -27 81 -87 127 -135 l83 -88 104 0 c58 0 107 4 110 9 8
13 -59 184 -76 193 -14 8 -345 68 -373 68 -13 0 -6 -12 25 -47z"/>
</g>
</svg>
